<?xml version="1.0" standalone="no"?>
<!-- Creator: fig2dev Version 3.2.7a -->
<!-- CreationDate: 2021-01-22 10:17:47 -->
<!-- Magnification: 1.05 -->
<svg	xmlns="http://www.w3.org/2000/svg"
	xmlns:xlink="http://www.w3.org/1999/xlink"
	width="179pt" height="161pt"
	viewBox="5287 4488 2831 2544">
<g fill="none">
<!-- Line -->
<polygon points=" 6702,4860 6858,4770 6858,4590 6702,4500 6546,4590 6546,4770"
	stroke="#000000" stroke-width="8px"/>
<!-- Line -->
<polygon points=" 6858,5130 7014,5040 7014,4860 6858,4770 6702,4860 6702,5040"
	stroke="#000000" stroke-width="8px"/>
<!-- Line -->
<polygon points=" 6547,5130 6703,5040 6703,4860 6547,4770 6391,4860 6391,5040"
	stroke="#000000" stroke-width="8px"/>
<!-- Line -->
<polygon points=" 7014,5400 7170,5310 7170,5130 7014,5040 6858,5130 6858,5310"
	stroke="#000000" stroke-width="8px"/>
<!-- Line -->
<polygon points=" 6391,5400 6547,5310 6547,5130 6391,5040 6235,5130 6235,5310"
	stroke="#000000" stroke-width="8px"/>
<!-- Line -->
<polygon points=" 6702,5400 6858,5310 6858,5130 6702,5040 6546,5130 6546,5310"
	stroke="#000000" stroke-width="8px"/>
<!-- Line -->
<polygon points=" 7170,5670 7326,5580 7326,5400 7170,5310 7014,5400 7014,5580"
	stroke="#000000" stroke-width="8px"/>
<!-- Line -->
<polygon points=" 6858,5670 7014,5580 7014,5400 6858,5310 6702,5400 6702,5580"
	stroke="#000000" stroke-width="8px"/>
<!-- Line -->
<polygon points=" 7326,5940 7482,5850 7482,5670 7326,5580 7170,5670 7170,5850"
	stroke="#000000" stroke-width="8px"/>
<!-- Line -->
<polygon points=" 7014,5940 7170,5850 7170,5670 7014,5580 6858,5670 6858,5850"
	stroke="#000000" stroke-width="8px"/>
<!-- Line -->
<polygon points=" 6703,5940 6859,5850 6859,5670 6703,5580 6547,5670 6547,5850"
	stroke="#000000" stroke-width="8px"/>
<!-- Line -->
<polygon points=" 7482,6210 7638,6120 7638,5940 7482,5850 7326,5940 7326,6120"
	stroke="#000000" stroke-width="8px"/>
<!-- Line -->
<polygon points=" 6859,6210 7015,6120 7015,5940 6859,5850 6703,5940 6703,6120"
	stroke="#000000" stroke-width="8px"/>
<!-- Line -->
<polygon points=" 7170,6210 7326,6120 7326,5940 7170,5850 7014,5940 7014,6120"
	stroke="#000000" stroke-width="8px"/>
<!-- Line -->
<polygon points=" 7638,6480 7794,6390 7794,6210 7638,6120 7482,6210 7482,6390"
	stroke="#000000" stroke-width="8px"/>
<!-- Line -->
<polygon points=" 6703,6480 6859,6390 6859,6210 6703,6120 6547,6210 6547,6390"
	stroke="#000000" stroke-width="8px"/>
<!-- Line -->
<polygon points=" 7014,6480 7170,6390 7170,6210 7014,6120 6858,6210 6858,6390"
	stroke="#000000" stroke-width="8px"/>
<!-- Line -->
<polygon points=" 7326,6480 7482,6390 7482,6210 7326,6120 7170,6210 7170,6390"
	stroke="#000000" stroke-width="8px"/>
<!-- Line -->
<polygon points=" 7794,6750 7950,6660 7950,6480 7794,6390 7638,6480 7638,6660"
	stroke="#000000" stroke-width="8px"/>
<!-- Line -->
<polygon points=" 7482,6750 7638,6660 7638,6480 7482,6390 7326,6480 7326,6660"
	stroke="#000000" stroke-width="8px"/>
<!-- Line -->
<polygon points=" 7170,6750 7326,6660 7326,6480 7170,6390 7014,6480 7014,6660"
	stroke="#000000" stroke-width="8px"/>
<!-- Line -->
<polygon points=" 6859,6750 7015,6660 7015,6480 6859,6390 6703,6480 6703,6660"
	stroke="#000000" stroke-width="8px"/>
<!-- Line -->
<polygon points=" 6547,5670 6703,5580 6703,5400 6547,5310 6391,5400 6391,5580"
	stroke="#000000" stroke-width="8px"/>
<!-- Line -->
<polygon points=" 6547,6210 6703,6120 6703,5940 6547,5850 6391,5940 6391,6120"
	stroke="#000000" stroke-width="8px"/>
<!-- Line -->
<polygon points=" 6391,5940 6547,5850 6547,5670 6391,5580 6235,5670 6235,5850"
	stroke="#000000" stroke-width="8px"/>
<!-- Line -->
<polygon points=" 6235,5670 6391,5580 6391,5400 6235,5310 6079,5400 6079,5580"
	stroke="#000000" stroke-width="8px"/>
<!-- Line -->
<polygon points=" 6079,5940 6235,5850 6235,5670 6079,5580 5923,5670 5923,5850"
	stroke="#000000" stroke-width="8px"/>
<!-- Line -->
<polygon points=" 6235,6210 6391,6120 6391,5940 6235,5850 6079,5940 6079,6120"
	stroke="#000000" stroke-width="8px"/>
<!-- Line -->
<polygon points=" 5923,6210 6079,6120 6079,5940 5923,5850 5767,5940 5767,6120"
	stroke="#000000" stroke-width="8px"/>
<!-- Line -->
<polygon points=" 6079,6480 6235,6390 6235,6210 6079,6120 5923,6210 5923,6390"
	stroke="#000000" stroke-width="8px"/>
<!-- Line -->
<polygon points=" 5767,6480 5923,6390 5923,6210 5767,6120 5611,6210 5611,6390"
	stroke="#000000" stroke-width="8px"/>
<!-- Line -->
<polygon points=" 6548,6750 6704,6660 6704,6480 6548,6390 6392,6480 6392,6660"
	stroke="#000000" stroke-width="8px"/>
<!-- Line -->
<polygon points=" 6235,6750 6391,6660 6391,6480 6235,6390 6079,6480 6079,6660"
	stroke="#000000" stroke-width="8px"/>
<!-- Line -->
<polygon points=" 5923,6750 6079,6660 6079,6480 5923,6390 5767,6480 5767,6660"
	stroke="#000000" stroke-width="8px"/>
<!-- Line -->
<polygon points=" 5611,6750 5767,6660 5767,6480 5611,6390 5455,6480 5455,6660"
	stroke="#000000" stroke-width="8px"/>
<!-- Line -->
<polygon points=" 5455,7020 5611,6930 5611,6750 5455,6660 5299,6750 5299,6930"
	stroke="#000000" stroke-width="8px"/>
<!-- Line -->
<polygon points=" 5767,7020 5923,6930 5923,6750 5767,6660 5611,6750 5611,6930"
	stroke="#000000" stroke-width="8px"/>
<!-- Line -->
<polygon points=" 7950,7020 8106,6930 8106,6750 7950,6660 7794,6750 7794,6930"
	stroke="#000000" stroke-width="8px"/>
<!-- Line -->
<polygon points=" 7638,7020 7794,6930 7794,6750 7638,6660 7482,6750 7482,6930"
	stroke="#000000" stroke-width="8px"/>
<!-- Line -->
<polygon points=" 7326,7020 7482,6930 7482,6750 7326,6660 7170,6750 7170,6930"
	stroke="#000000" stroke-width="8px"/>
<!-- Line -->
<polygon points=" 6391,7020 6547,6930 6547,6750 6391,6660 6235,6750 6235,6930"
	stroke="#000000" stroke-width="8px"/>
<!-- Line -->
<polygon points=" 7014,7020 7170,6930 7170,6750 7014,6660 6858,6750 6858,6930"
	stroke="#000000" stroke-width="8px"/>
<!-- Line -->
<polygon points=" 6703,7020 6859,6930 6859,6750 6703,6660 6547,6750 6547,6930"
	stroke="#000000" stroke-width="8px"/>
<!-- Line -->
<polygon points=" 6079,7020 6235,6930 6235,6750 6079,6660 5923,6750 5923,6930"
	stroke="#000000" stroke-width="8px"/>
<!-- Line -->
<polygon points=" 6391,6480 6547,6390 6547,6210 6391,6120 6235,6210 6235,6390"
	stroke="#000000" stroke-width="8px"/>
<!-- Text -->
<text xml:space="preserve" x="6701" y="4747" fill="#000000" font-family="Helvetica" font-style="normal" font-weight="bold" font-size="144" text-anchor="middle">1</text>
<!-- Text -->
<text xml:space="preserve" x="6857" y="5017" fill="#000000" font-family="Helvetica" font-style="normal" font-weight="bold" font-size="144" text-anchor="middle">1</text>
<!-- Text -->
<text xml:space="preserve" x="6546" y="5017" fill="#000000" font-family="Helvetica" font-style="normal" font-weight="bold" font-size="144" text-anchor="middle">1</text>
<!-- Text -->
<text xml:space="preserve" x="7013" y="5287" fill="#000000" font-family="Helvetica" font-style="normal" font-weight="bold" font-size="144" text-anchor="middle">1</text>
<!-- Text -->
<text xml:space="preserve" x="6390" y="5287" fill="#000000" font-family="Helvetica" font-style="normal" font-weight="bold" font-size="144" text-anchor="middle">1</text>
<!-- Text -->
<text xml:space="preserve" x="6701" y="5287" fill="#000000" font-family="Helvetica" font-style="normal" font-weight="bold" font-size="144" text-anchor="middle">2</text>
<!-- Text -->
<text xml:space="preserve" x="7169" y="5557" fill="#000000" font-family="Helvetica" font-style="normal" font-weight="bold" font-size="144" text-anchor="middle">1</text>
<!-- Text -->
<text xml:space="preserve" x="6857" y="5557" fill="#000000" font-family="Helvetica" font-style="normal" font-weight="bold" font-size="144" text-anchor="middle">3</text>
<!-- Text -->
<text xml:space="preserve" x="7325" y="5827" fill="#000000" font-family="Helvetica" font-style="normal" font-weight="bold" font-size="144" text-anchor="middle">1</text>
<!-- Text -->
<text xml:space="preserve" x="7013" y="5827" fill="#000000" font-family="Helvetica" font-style="normal" font-weight="bold" font-size="144" text-anchor="middle">4</text>
<!-- Text -->
<text xml:space="preserve" x="6702" y="5827" fill="#000000" font-family="Helvetica" font-style="normal" font-weight="bold" font-size="144" text-anchor="middle">6</text>
<!-- Text -->
<text xml:space="preserve" x="7481" y="6097" fill="#000000" font-family="Helvetica" font-style="normal" font-weight="bold" font-size="144" text-anchor="middle">1</text>
<!-- Text -->
<text xml:space="preserve" x="6858" y="6097" fill="#000000" font-family="Helvetica" font-style="normal" font-weight="bold" font-size="144" text-anchor="middle">10</text>
<!-- Text -->
<text xml:space="preserve" x="7169" y="6097" fill="#000000" font-family="Helvetica" font-style="normal" font-weight="bold" font-size="144" text-anchor="middle">5</text>
<!-- Text -->
<text xml:space="preserve" x="7637" y="6367" fill="#000000" font-family="Helvetica" font-style="normal" font-weight="bold" font-size="144" text-anchor="middle">1</text>
<!-- Text -->
<text xml:space="preserve" x="6702" y="6367" fill="#000000" font-family="Helvetica" font-style="normal" font-weight="bold" font-size="144" text-anchor="middle">20</text>
<!-- Text -->
<text xml:space="preserve" x="7013" y="6367" fill="#000000" font-family="Helvetica" font-style="normal" font-weight="bold" font-size="144" text-anchor="middle">15</text>
<!-- Text -->
<text xml:space="preserve" x="7325" y="6367" fill="#000000" font-family="Helvetica" font-style="normal" font-weight="bold" font-size="144" text-anchor="middle">6</text>
<!-- Text -->
<text xml:space="preserve" x="7793" y="6637" fill="#000000" font-family="Helvetica" font-style="normal" font-weight="bold" font-size="144" text-anchor="middle">1</text>
<!-- Text -->
<text xml:space="preserve" x="7481" y="6637" fill="#000000" font-family="Helvetica" font-style="normal" font-weight="bold" font-size="144" text-anchor="middle">7</text>
<!-- Text -->
<text xml:space="preserve" x="7169" y="6637" fill="#000000" font-family="Helvetica" font-style="normal" font-weight="bold" font-size="144" text-anchor="middle">21</text>
<!-- Text -->
<text xml:space="preserve" x="6858" y="6637" fill="#000000" font-family="Helvetica" font-style="normal" font-weight="bold" font-size="144" text-anchor="middle">35</text>
<!-- Text -->
<text xml:space="preserve" x="6546" y="5557" fill="#000000" font-family="Helvetica" font-style="normal" font-weight="bold" font-size="144" text-anchor="middle">3</text>
<!-- Text -->
<text xml:space="preserve" x="6546" y="6097" fill="#000000" font-family="Helvetica" font-style="normal" font-weight="bold" font-size="144" text-anchor="middle">10</text>
<!-- Text -->
<text xml:space="preserve" x="6390" y="5827" fill="#000000" font-family="Helvetica" font-style="normal" font-weight="bold" font-size="144" text-anchor="middle">4</text>
<!-- Text -->
<text xml:space="preserve" x="6234" y="5557" fill="#000000" font-family="Helvetica" font-style="normal" font-weight="bold" font-size="144" text-anchor="middle">1</text>
<!-- Text -->
<text xml:space="preserve" x="6078" y="5827" fill="#000000" font-family="Helvetica" font-style="normal" font-weight="bold" font-size="144" text-anchor="middle">1</text>
<!-- Text -->
<text xml:space="preserve" x="6234" y="6097" fill="#000000" font-family="Helvetica" font-style="normal" font-weight="bold" font-size="144" text-anchor="middle">5</text>
<!-- Text -->
<text xml:space="preserve" x="5922" y="6097" fill="#000000" font-family="Helvetica" font-style="normal" font-weight="bold" font-size="144" text-anchor="middle">1</text>
<!-- Text -->
<text xml:space="preserve" x="6078" y="6367" fill="#000000" font-family="Helvetica" font-style="normal" font-weight="bold" font-size="144" text-anchor="middle">6</text>
<!-- Text -->
<text xml:space="preserve" x="5766" y="6367" fill="#000000" font-family="Helvetica" font-style="normal" font-weight="bold" font-size="144" text-anchor="middle">1</text>
<!-- Text -->
<text xml:space="preserve" x="6547" y="6637" fill="#000000" font-family="Helvetica" font-style="normal" font-weight="bold" font-size="144" text-anchor="middle">35</text>
<!-- Text -->
<text xml:space="preserve" x="6234" y="6637" fill="#000000" font-family="Helvetica" font-style="normal" font-weight="bold" font-size="144" text-anchor="middle">21</text>
<!-- Text -->
<text xml:space="preserve" x="5922" y="6637" fill="#000000" font-family="Helvetica" font-style="normal" font-weight="bold" font-size="144" text-anchor="middle">7</text>
<!-- Text -->
<text xml:space="preserve" x="5610" y="6637" fill="#000000" font-family="Helvetica" font-style="normal" font-weight="bold" font-size="144" text-anchor="middle">1</text>
<!-- Text -->
<text xml:space="preserve" x="5454" y="6907" fill="#000000" font-family="Helvetica" font-style="normal" font-weight="bold" font-size="144" text-anchor="middle">1</text>
<!-- Text -->
<text xml:space="preserve" x="5766" y="6907" fill="#000000" font-family="Helvetica" font-style="normal" font-weight="bold" font-size="144" text-anchor="middle">8</text>
<!-- Text -->
<text xml:space="preserve" x="7949" y="6907" fill="#000000" font-family="Helvetica" font-style="normal" font-weight="bold" font-size="144" text-anchor="middle">1</text>
<!-- Text -->
<text xml:space="preserve" x="7637" y="6907" fill="#000000" font-family="Helvetica" font-style="normal" font-weight="bold" font-size="144" text-anchor="middle">8</text>
<!-- Text -->
<text xml:space="preserve" x="7325" y="6907" fill="#000000" font-family="Helvetica" font-style="normal" font-weight="bold" font-size="144" text-anchor="middle">28</text>
<!-- Text -->
<text xml:space="preserve" x="6390" y="6907" fill="#000000" font-family="Helvetica" font-style="normal" font-weight="bold" font-size="144" text-anchor="middle">56</text>
<!-- Text -->
<text xml:space="preserve" x="7013" y="6907" fill="#000000" font-family="Helvetica" font-style="normal" font-weight="bold" font-size="144" text-anchor="middle">56</text>
<!-- Text -->
<text xml:space="preserve" x="6702" y="6907" fill="#000000" font-family="Helvetica" font-style="normal" font-weight="bold" font-size="144" text-anchor="middle">70</text>
<!-- Text -->
<text xml:space="preserve" x="6078" y="6907" fill="#000000" font-family="Helvetica" font-style="normal" font-weight="bold" font-size="144" text-anchor="middle">28</text>
<!-- Text -->
<text xml:space="preserve" x="6390" y="6367" fill="#000000" font-family="Helvetica" font-style="normal" font-weight="bold" font-size="144" text-anchor="middle">15</text>
</g>
</svg>
